<svg class="img-fluid" id="outputsvg" xmlns="http://www.w3.org/2000/svg" style="transform: matrix(1, 0, 0, 1, 0, 0); transform-origin: 50% 50%; cursor: move; max-height: none; transition: transform 200ms ease-in-out 0s;" width="3043" height="834" viewBox="0 0 30430 8340">
  <g id="l7iEYlN6APRJdG9A84FUl2X" fill="rgb(26,150,213)" style="transform: none;">
    <g>
      <path id="pYzgmDRU8" d="M3260 7320 c-102 -43 -185 -83 -185 -89 0 -42 211 -264 320 -336 336 -222 741 -245 1100 -64 75 37 214 131 170 114 -11 -5 -60 -19 -110 -32 -83 -23 -104 -24 -280 -20 -175 3 -197 6 -275 32 -223 72 -383 205 -495 408 -20 37 -42 67 -48 66 -7 -1 -95 -36 -197 -79z"></path>
      <path id="p13aobF0T6" d="M5135 7302 c-287 -635 -1046 -911 -1671 -607 -123 60 -249 148 -340 239 -57 57 -177 210 -186 237 -3 9 -56 -8 -169 -55 l-165 -69 23 -67 c33 -99 46 -238 33 -346 -26 -212 -98 -359 -258 -526 -100 -104 -176 -161 -293 -217 l-97 -47 136 -99 c75 -54 191 -136 257 -181 l121 -83 75 91 c90 110 249 264 355 345 106 81 236 165 243 158 3 -4 191 -333 417 -733 397 -702 412 -728 455 -751 71 -41 451 -212 457 -207 2 3 -228 416 -512 919 -284 503 -516 917 -516 920 0 4 56 24 125 46 480 154 1006 139 1470 -40 714 -276 1241 -913 1375 -1664 40 -223 44 -532 9 -732 -6 -35 -9 -67 -6 -69 17 -17 667 -104 667 -90 0 2 -11 24 -25 49 -32 57 -70 165 -85 244 -8 40 -11 124 -8 245 4 155 8 194 28 253 48 149 121 266 233 372 62 59 196 151 241 166 5 2 -70 197 -168 433 l-177 430 -82 -28 c-174 -58 -417 -75 -603 -43 -513 90 -920 499 -1010 1015 -12 72 -15 134 -11 255 2 88 7 167 11 176 7 15 -20 28 -275 133 l-35 15 -39 -87z"></path>
      <path id="pHuqNe10v" d="M5619 7189 c0 -8 -4 -50 -9 -94 -15 -152 16 -343 84 -503 101 -242 330 -472 571 -577 l60 -26 -107 108 c-157 159 -227 283 -263 462 -24 117 -16 295 17 408 l25 82 -171 70 c-220 90 -206 86 -207 70z"></path>
      <path id="py4ycPGXB" d="M1250 5444 c-96 -233 -176 -428 -177 -432 -2 -4 27 -23 64 -42 203 -105 362 -305 425 -535 30 -110 32 -403 4 -508 -67 -251 -226 -452 -444 -561 -29 -15 -52 -31 -50 -35 2 -4 82 -198 178 -430 158 -380 177 -421 195 -416 159 45 184 49 305 48 143 -1 238 -21 357 -78 103 -48 155 -86 262 -189 149 -146 227 -271 272 -441 30 -114 30 -299 -1 -410 -12 -44 -24 -89 -27 -100 -4 -20 78 -56 824 -362 l32 -13 43 82 c54 102 173 230 277 299 160 105 325 145 561 136 116 -4 163 -11 235 -32 221 -65 403 -211 511 -410 20 -38 38 -71 39 -72 1 -2 609 248 827 340 l36 15 -25 79 c-32 97 -42 278 -23 387 20 112 68 231 131 325 59 89 208 242 289 298 214 146 504 189 740 110 l67 -22 159 384 c87 212 166 403 175 425 l17 41 -187 3 c-1525 20 -3594 839 -5375 2126 -165 119 -374 279 -501 381 l-40 33 -175 -424z m1793 -1994 c555 -982 801 -1426 791 -1428 -21 -5 -220 52 -326 94 -291 115 -542 278 -759 494 -186 185 -307 354 -424 592 -165 335 -234 660 -222 1042 6 197 22 311 66 481 36 137 49 171 61 159 4 -5 371 -650 813 -1434z m4 927 c429 -246 870 -466 1312 -654 l226 -96 384 -680 c211 -374 384 -687 385 -695 1 -21 -68 -59 -224 -121 -263 -105 -541 -162 -787 -161 l-88 1 -705 1249 c-388 688 -706 1255 -708 1260 -2 6 -1 10 2 10 2 0 94 -51 203 -113z m2197 -986 c287 -94 620 -184 874 -236 62 -12 115 -25 118 -28 9 -9 -91 -170 -175 -282 -119 -159 -399 -431 -421 -409 -5 5 -122 209 -260 454 -139 245 -265 469 -282 498 -18 32 -25 52 -17 52 7 0 80 -22 163 -49z"></path>
    </g>
  </g>
  <g id="lTPYEviQYkm8Ajwatc1vZe" fill="rgb(114,113,113)" style="transform: none;">
    <g>
      <path id="p19T5DIJfJ" d="M27260 5250 l0 -90 273 0 c156 0 288 -5 309 -10 52 -15 68 -42 68 -117 l0 -63 -167 0 c-274 -1 -356 -22 -452 -118 -98 -99 -141 -230 -141 -429 0 -154 19 -253 70 -359 44 -91 105 -161 170 -194 81 -41 157 -50 453 -50 l279 0 -5 653 c-5 711 -3 696 -63 766 -71 82 -170 101 -551 101 l-243 0 0 -90z m650 -855 l0 -395 -168 0 c-201 0 -244 10 -297 73 -100 117 -121 426 -40 587 56 109 105 128 338 129 l167 1 0 -395z"></path>
      <path id="pxHRiOt23" d="M28470 5251 l0 -91 283 -1 c185 0 295 -5 321 -12 52 -16 78 -53 84 -121 l4 -54 -208 -5 c-121 -2 -225 -9 -246 -16 -55 -17 -128 -70 -165 -119 -63 -84 -65 -101 -71 -579 l-4 -433 106 0 105 0 3 427 c3 410 4 429 23 463 40 67 67 75 273 78 l182 4 0 -486 0 -486 100 0 101 0 -3 648 -3 647 -24 52 c-13 29 -43 70 -66 92 -73 68 -105 73 -472 78 l-323 5 0 -91z"></path>
      <path id="pqteVsvXq" d="M24385 4974 c-225 -47 -346 -161 -401 -374 -25 -95 -22 -291 5 -393 71 -269 236 -396 511 -397 265 0 428 124 497 380 24 91 24 320 -1 410 -53 193 -171 314 -351 360 -72 18 -203 25 -260 14z m164 -184 c177 -29 261 -153 261 -386 0 -274 -131 -429 -348 -411 -189 15 -287 153 -287 407 0 236 83 366 250 390 27 4 52 8 55 9 3 0 34 -4 69 -9z"></path>
      <path id="puGoE7klD" d="M26230 4964 c-194 -42 -322 -176 -366 -385 -20 -92 -14 -296 10 -384 41 -152 136 -278 248 -332 82 -40 147 -53 266 -53 152 0 256 36 343 117 113 105 159 224 166 433 6 161 -10 250 -62 356 -101 207 -342 305 -605 248z m274 -191 c65 -21 126 -83 157 -159 22 -53 24 -74 24 -214 -1 -179 -15 -234 -85 -313 -104 -118 -312 -130 -427 -24 -89 82 -118 179 -111 368 5 135 23 199 73 264 70 93 221 124 369 78z"></path>
      <path id="p9S1fIuUh" d="M18540 4280 l0 -690 -245 0 -245 0 0 -100 0 -100 605 0 605 0 0 100 0 100 -245 0 -245 0 0 690 0 690 -115 0 -115 0 0 -690z"></path>
      <path id="p19BrBfb7X" d="M19600 4959 c-194 -28 -309 -180 -340 -446 -27 -234 43 -467 174 -579 54 -46 147 -91 215 -104 29 -5 141 -10 247 -10 l194 0 0 90 0 90 -195 0 c-233 0 -278 11 -345 87 -36 42 -80 144 -80 189 0 12 52 14 310 14 l310 0 0 90 0 90 -310 0 -310 0 0 43 c0 107 59 214 138 250 42 19 68 22 265 25 l217 4 0 89 0 89 -217 -1 c-120 -1 -243 -5 -273 -10z"></path>
      <path id="pQZlfwTuY" d="M20720 4959 c-204 -29 -324 -180 -361 -455 -13 -101 1 -249 32 -347 59 -179 181 -297 339 -327 29 -5 149 -10 266 -10 l214 0 0 90 0 90 -208 0 c-247 0 -288 8 -351 71 -64 65 -86 147 -86 324 1 158 14 221 65 297 21 31 47 54 78 70 44 22 60 23 275 26 l227 3 0 90 0 89 -212 -1 c-117 -1 -242 -6 -278 -10z"></path>
      <path id="p5SNPaAgj" d="M21480 4180 l0 -790 100 0 100 0 0 214 0 214 213 4 c231 5 278 14 355 66 85 56 125 143 142 302 5 56 10 255 10 441 l0 339 -104 0 -105 0 -3 -417 c-3 -410 -3 -419 -25 -459 -12 -23 -39 -53 -60 -65 -36 -23 -49 -24 -230 -27 l-193 -4 0 486 0 486 -100 0 -100 0 0 -790z"></path>
      <path id="p17J5OmlEZ" d="M22770 4394 l0 -575 313 3 c293 3 315 5 365 25 75 30 118 66 152 126 55 97 60 144 60 591 l0 406 -100 0 -100 0 0 -380 c0 -232 -4 -398 -11 -429 -14 -68 -45 -112 -99 -138 -41 -21 -58 -23 -212 -23 l-168 0 0 485 0 485 -100 0 -100 0 0 -576z"></path>
      <path id="pqYjiMP9L" d="M25330 4180 l0 -790 100 0 100 0 0 790 0 790 -100 0 -100 0 0 -790z"></path>
    </g>
  </g>
  <g id="l2HOwUhjG0wm5mDQM0TQv4x" fill="rgb(0,0,0)" style="transform: none;">
    <g>
      <path id="p1AyMlDlB8" d="M12760 4966 c-271 -58 -430 -194 -509 -436 -81 -246 -62 -591 44 -805 124 -249 415 -377 787 -344 133 11 204 30 304 79 224 109 332 315 351 665 15 284 -56 517 -201 660 -80 80 -169 131 -286 166 -96 28 -386 36 -490 15z m401 -235 c156 -59 234 -182 260 -408 13 -114 5 -286 -17 -387 -52 -230 -187 -336 -430 -336 -209 0 -354 86 -414 247 -39 104 -45 152 -44 338 1 151 4 193 22 259 38 136 97 218 195 266 84 41 133 50 262 46 82 -3 124 -9 166 -25z"></path>
      <path id="pQcgEOLFg" d="M16175 4960 c-126 -27 -260 -95 -335 -170 -143 -143 -208 -361 -197 -659 9 -260 69 -424 203 -558 115 -115 256 -172 470 -193 120 -11 280 2 384 31 230 63 379 221 440 464 31 120 43 295 31 428 -33 353 -188 562 -481 648 -110 32 -387 37 -515 9z m366 -214 c127 -27 208 -90 260 -200 46 -97 61 -190 61 -361 0 -227 -34 -359 -116 -460 -107 -130 -384 -167 -572 -75 -112 55 -183 164 -211 327 -20 113 -13 379 12 467 48 172 151 275 307 305 68 14 187 12 259 -3z"></path>
      <path id="pniGcSsgt" d="M10540 4180 l0 -790 145 0 145 0 0 335 0 335 370 0 370 0 0 -335 0 -335 140 0 140 0 0 790 0 790 -140 0 -140 0 0 -340 0 -340 -370 0 -370 0 0 340 0 340 -145 0 -145 0 0 -790z"></path>
      <path id="pWleTPagH" d="M14050 4855 l0 -115 373 0 c422 -1 501 -7 566 -48 135 -83 113 -323 -34 -383 -19 -8 -127 -15 -305 -19 -289 -8 -368 -18 -451 -61 -94 -47 -164 -139 -194 -254 -53 -205 46 -441 222 -526 102 -49 129 -52 621 -56 l462 -5 0 115 0 115 -417 5 c-299 3 -429 7 -458 17 -112 35 -168 180 -112 290 46 91 113 110 382 110 208 0 339 12 412 36 120 40 205 130 246 259 31 99 30 265 -2 347 -47 122 -130 207 -239 248 -85 32 -209 40 -654 40 l-418 0 0 -115z"></path>
    </g>
  </g>
</svg>