<?xml version="1.0" encoding="utf-8"?>
<!-- Generator: Adobe Illustrator 26.5.0, SVG Export Plug-In . SVG Version: 6.00 Build 0)  -->
<svg version="1.1" id="_图层_1" xmlns="http://www.w3.org/2000/svg" xmlns:xlink="http://www.w3.org/1999/xlink" x="0px" y="0px"
	 viewBox="0 0 233 104.9" style="enable-background:new 0 0 233 104.9;" xml:space="preserve">
<style type="text/css">
	.st0{fill:#221815;}
</style>
<g>
	<path class="st0" d="M207.7,35.7c-1.5,1.6-3.2,2.5-5.3,2.9c-1.4,0.3-2.7,0.4-4.2,0.2c-1.9-0.2-3.5-0.8-5.1-2c-1.3-1-2.2-2-3-3.4
		c-0.6-1.1-1-2.1-1.2-3.3c-0.3-1.7-0.2-3.2,0.2-4.8c1-3.8,3.8-6.4,7.6-7.2c2.2-0.5,4.1-0.4,6.3,0.1c1.5,0.4,2.8,1.1,3.9,2.1
		c0.7,0.7,1.3,1.4,1.7,2.2c0.5,1,0.8,2.1,0.7,3.2h-6.8c-0.2-0.9-0.6-1.6-1.3-2.2c-0.9-0.7-2.2-0.8-3.2-0.2c-0.7,0.4-1.1,1-1.4,1.8
		c-0.6,1.9-0.6,3.6-0.1,5.5c0.2,0.8,0.6,1.4,1.2,2c0.7,0.6,1.5,0.9,2.4,0.8c0.6-0.1,1-0.3,1.4-0.8s0.6-0.9,0.8-1.5
		c0.1-0.4,0.1-0.8,0.1-1.2h7.2C209.9,32.3,209.2,34.2,207.7,35.7"/>
	<rect x="180.3" y="10.5" class="st0" width="7.4" height="5.3"/>
	<rect x="180.3" y="18.4" class="st0" width="7.4" height="19.9"/>
	<path class="st0" d="M164.9,20.5c1-0.8,1.9-1.4,3.1-2c1.9-0.9,3.8-1,5.9-0.4c2.2,0.6,3.8,2.2,4.4,4.3c0.3,1,0.5,2,0.5,3.1v12.8
		h-7.9V26.8c0-0.4,0-0.7-0.2-1.1c-0.2-0.7-0.6-1.1-1.3-1.4c-1.4-0.6-3-0.1-3.8,1.2c-0.3,0.6-0.5,1.1-0.5,1.7v11.1h-7.6V18.4h7.2
		L164.9,20.5"/>
	<path class="st0" d="M77,20.5c1-0.8,1.9-1.4,3.1-2c1.9-0.9,3.8-1,5.9-0.4c2.2,0.6,3.8,2.2,4.4,4.3c0.3,1,0.5,2,0.5,3.1v12.8H83
		V26.8c0-0.4,0-0.7-0.2-1.1c-0.2-0.7-0.6-1.1-1.3-1.4c-1.4-0.6-3-0.1-3.8,1.2c-0.3,0.6-0.5,1.1-0.5,1.7v11.1h-7.6V18.4h7.2L77,20.5"
		/>
	<path class="st0" d="M123.8,31c0.6,0.1,1,0.2,1.6,0.4c0.5,0.2,0.8,0.5,0.9,1c0.1,0.5,0,1-0.4,1.4s-0.8,0.6-1.3,0.7
		c-0.7,0.1-1.3,0-2-0.2c-0.3-0.1-0.6-0.3-0.8-0.5c-0.3-0.3-0.6-0.6-0.7-1s-0.2-0.7-0.2-1.1h-7.3v0.4c0,0.7,0.1,1.3,0.4,1.9
		c0.4,1,0.9,1.7,1.6,2.4c1,0.9,2,1.5,3.3,1.9c2.7,0.8,5.1,0.9,7.9,0.5c1.3-0.2,2.4-0.5,3.5-1.2c0.5-0.3,0.9-0.5,1.4-0.9
		c2-1.6,2.7-4.2,1.9-6.6c-0.3-0.9-0.8-1.6-1.5-2.3c-1-0.9-2-1.4-3.3-1.8c-0.3-0.1-0.5-0.2-0.8-0.2c-1.6-0.4-2.9-0.7-4.5-1
		c-0.4-0.1-0.8-0.1-1.2-0.2c-0.2,0-0.4-0.1-0.5-0.2c-0.4-0.2-0.6-0.7-0.4-1.2c0,0,0,0,0-0.1c0.2-0.4,0.6-0.7,1.1-0.8
		c0.8-0.2,1.6-0.2,2.4,0.1c0.8,0.3,1.3,1,1.2,1.8h7c0-0.9-0.1-1.6-0.4-2.4c-0.3-0.8-0.7-1.4-1.4-2c-0.6-0.5-1.2-0.8-1.9-1.1
		c-0.7-0.3-1.3-0.4-2-0.6c-1.7-0.3-3.2-0.4-5-0.3c-1,0.1-1.9,0.2-2.8,0.4c-1.3,0.3-2.4,0.8-3.5,1.7c-0.9,0.7-1.5,1.5-1.9,2.6
		c-0.2,0.5-0.3,0.9-0.3,1.5c0,0.9,0.1,1.6,0.4,2.4c0.6,1.5,1.6,2.5,3.1,3.1c0.7,0.3,1.4,0.5,2.2,0.6C121,30.5,122.3,30.7,123.8,31"
		/>
	<path class="st0" d="M36.9,29.7h-5.1v-6.5h3.3c0.6,0,1.2,0,1.8,0c0.9,0,1.6-0.4,2.1-1.1c0.3-0.4,0.4-0.8,0.5-1.2
		c0.1-0.4,0.1-0.7,0-1.1c-0.1-1.4-1.3-2.5-2.8-2.5h-4.9v21.1h-8.4V10.5h13.8c0.5,0,1,0,1.6,0c3.7,0.2,6.7,2.2,8.2,5.6
		c0.8,1.7,1.1,3.4,0.9,5.3c-0.4,4-3.2,7.1-7.2,8C39.3,29.6,38.2,29.7,36.9,29.7"/>
	<path class="st0" d="M147.7,18c-0.8-0.1-1.5-0.2-2.2-0.2s-1.5,0-2.3,0.2c-2.3,0.4-4.1,1.3-5.8,2.9c-1.8,1.7-2.8,3.7-3,6.2
		c-0.1,1.5,0,2.8,0.4,4.3c0.6,2.2,1.8,4,3.6,5.4c1.2,0.9,2.4,1.5,3.9,1.8c1.1,0.2,2,0.3,3.1,0.3s2-0.1,3.1-0.3
		c1.5-0.3,2.7-0.9,3.9-1.8l-4.3-4.7c-0.7,1.5-2.4,2.2-4,1.5c-0.7-0.3-1.2-0.8-1.5-1.5c-0.3-0.6-0.5-1.2-0.6-1.9
		c-0.2-1.4-0.2-2.6,0.1-4c0.1-0.7,0.4-1.3,0.8-1.9c0.9-1.3,2.7-1.7,4-0.8c0.3,0.2,0.6,0.5,0.8,0.8c0.4,0.6,0.6,1.2,0.8,1.9
		c0.3,1.4,0.3,2.6,0.1,4c-0.1,0.7-0.3,1.3-0.6,1.9l4.3,4.7c1.8-1.4,3-3.1,3.6-5.4c0.4-1.5,0.5-2.8,0.4-4.3c-0.2-2.5-1.2-4.5-3-6.2
		C151.8,19.3,150,18.4,147.7,18"/>
	<path class="st0" d="M112.8,36.8c-0.1-1.6-0.2-3-0.2-4.7c0-2.2-0.1-4-0.1-6.1c0-1.2-0.1-2.1-0.4-3.3c-0.4-1.5-1.2-2.6-2.6-3.3
		c-0.8-0.4-1.5-0.7-2.4-0.9c-2.9-0.6-5.4-0.7-8.3-0.2c-0.8,0.1-1.5,0.3-2.2,0.6c-1.8,0.7-3,2.1-3.5,3.9c-0.2,0.7-0.3,1.3-0.2,2
		c0,0.1,0,0.2,0.1,0.4l6.7,0.2c0-0.4,0-0.8,0.2-1.2c0.2-0.6,0.6-1,1.3-1.3c0.9-0.3,1.8-0.3,2.7,0c0.6,0.2,1,0.6,1.2,1.2
		c0.1,0.4,0.1,0.7-0.2,1.1c-0.2,0.3-0.4,0.5-0.8,0.6c-0.2,0.1-0.4,0.1-0.6,0.2c-0.9,0.2-1.7,0.4-2.7,0.6c-0.8,0.1-1.4,0.2-2.1,0.4
		c-1,0.2-1.9,0.4-2.8,0.7C95,28,94.3,28.4,93.6,29c-0.9,0.8-1.4,1.8-1.6,3c-0.1,0.8-0.1,1.5,0.1,2.3c0.5,2.1,1.9,3.6,4,4.2
		c2.3,0.7,4.4,0.5,6.6-0.3c1.1-0.4,1.9-1,2.6-1.9l-0.5-3.4c-0.3,0.5-0.8,0.9-1.3,1.1c-0.5,0.2-1,0.4-1.6,0.4c-0.5,0-0.9,0-1.4-0.1
		c-0.4-0.1-0.7-0.3-0.9-0.6c-0.2-0.2-0.4-0.5-0.4-0.8c-0.1-0.5,0.1-1,0.4-1.3c0.3-0.2,0.5-0.4,0.8-0.5c0.8-0.3,1.4-0.5,2.2-0.7
		c1-0.3,1.8-0.6,2.7-1c0.1,0.7,0.1,1.4,0,2.1c-0.1,0.5-0.2,1-0.5,1.4l0.5,3.4c0.2,0.5,0.3,0.9,0.4,1.4c0.1,0.3,0.2,0.5,0.4,0.7h7.4
		C113,37.8,112.9,37.4,112.8,36.8"/>
	<path class="st0" d="M68.2,36.8c-0.1-1.6-0.2-3-0.2-4.7c0-2.2-0.1-4-0.1-6.1c0-1.2-0.1-2.1-0.4-3.3c-0.4-1.5-1.2-2.6-2.6-3.3
		c-0.8-0.4-1.5-0.7-2.4-0.9c-2.9-0.6-5.4-0.7-8.3-0.2c-0.8,0.1-1.5,0.3-2.2,0.6c-1.8,0.7-3,2.1-3.5,3.9c-0.2,0.7-0.3,1.3-0.2,2
		c0,0.1,0,0.2,0.1,0.4l6.7,0.2c0-0.4,0-0.8,0.2-1.2c0.2-0.6,0.7-1,1.3-1.3c0.9-0.3,1.8-0.3,2.7,0c0.6,0.2,1,0.6,1.2,1.2
		c0.1,0.4,0.1,0.7-0.2,1.1c-0.2,0.3-0.4,0.5-0.8,0.6c-0.2,0.1-0.4,0.1-0.6,0.2c-0.9,0.2-1.7,0.4-2.7,0.6c-0.8,0.1-1.4,0.2-2.1,0.4
		c-1,0.2-1.9,0.4-2.8,0.7C50.4,28,49.7,28.4,49,29c-0.9,0.8-1.4,1.8-1.6,3c-0.1,0.8-0.1,1.5,0.1,2.3c0.5,2.1,1.9,3.6,4,4.2
		c2.3,0.7,4.4,0.5,6.6-0.3c1.1-0.4,1.9-1,2.6-1.9L60,32.9c-0.3,0.5-0.8,0.9-1.3,1.1c-0.5,0.2-1,0.4-1.6,0.4c-0.5,0-0.9,0-1.4-0.1
		c-0.4-0.1-0.7-0.3-0.9-0.6c-0.2-0.2-0.4-0.5-0.4-0.8c-0.1-0.5,0.1-1,0.4-1.3c0.3-0.2,0.5-0.4,0.8-0.5c0.8-0.3,1.4-0.5,2.2-0.7
		c1-0.3,1.8-0.6,2.7-1c0.1,0.7,0.1,1.4,0,2.1c-0.1,0.5-0.2,1-0.5,1.4l0.5,3.4c0.2,0.5,0.3,0.9,0.4,1.4c0.1,0.3,0.2,0.5,0.4,0.7h7.4
		C68.4,37.8,68.2,37.4,68.2,36.8"/>
	<polygon class="st0" points="113.5,80.4 113.5,85.9 100.7,81.6 100.7,94.4 92.1,94.4 92.1,69.4 80.9,69.4 80.9,66.3 113.7,66.3 
		113.7,69.4 100.7,69.4 100.7,76.1 	"/>
	<path class="st0" d="M150,91.3v3.1h-20.9v-6.7h-12.4V68.9h12.4v-3h8.3v3h12.5v18.8h-12.5v3.6L150,91.3L150,91.3z M137.4,84.3h5.2
		v-4.5h-5.2V84.3z M137.4,76.8h5.2v-4.6h-5.2V76.8z M123.9,84.3h5.2v-4.5h-5.2C123.9,79.7,123.9,84.3,123.9,84.3z M123.9,76.8h5.2
		v-4.6h-5.2C123.9,72.2,123.9,76.8,123.9,76.8z"/>
	<polygon class="st0" points="62.6,66.3 62.6,69.4 70.8,69.4 74.2,79.1 81.7,79.1 77.1,66.3 	"/>
	<polygon class="st0" points="59.9,79.1 67,79.1 70.2,70.8 63,70.8 	"/>
	<polygon class="st0" points="81.9,94.4 78.2,84.3 71.6,84.3 74.1,91.3 68.1,91.3 72.3,80.4 65,80.4 59.5,94.4 	"/>
	<polygon class="st0" points="51.1,85.4 47.3,91.2 47.3,81.7 51.1,75.9 51.1,74 47.3,74 47.3,70.8 51.1,70.8 51.1,66.3 57.8,66.3 
		57.8,70.8 60.6,70.8 60.6,74 57.8,74 57.8,77 61,81.5 61,88.5 57.8,84.1 57.8,94.4 51.1,94.4 	"/>
	<path class="st0" d="M160.1,91.4h5.4v-3.1h-5.4V91.4z M172.8,91.4h5.3v-3.1h-5.3V91.4z M153,85.5h32.3v8.9H153V85.5L153,85.5z"/>
	<polygon class="st0" points="185.2,76.7 183,76.7 183,75 177.5,75 177.5,76.7 172.7,76.7 172.7,75.1 165.5,75.1 165.5,76.7 
		153,76.7 153,79.3 164.4,79.3 161.9,81.4 153,81.4 153,84.1 166.5,84.1 169.1,82 171.7,84.1 185.2,84.1 185.2,81.4 176.3,81.4 
		173.8,79.3 185.2,79.3 	"/>
	<path class="st0" d="M153,66.3h32.2v7.9H153V66.3z M172.7,71.7h5.3v-2.9h-5.3V71.7z M160.1,71.7h5.3v-2.9h-5.3V71.7z"/>
</g>
</svg>
