<svg class="img-fluid" id="outputsvg" xmlns="http://www.w3.org/2000/svg" style="transform: none; transform-origin: 50% 50%; cursor: move; max-height: 341.68px;" width="3518" height="500" viewBox="0 0 35180 5000">
  <g id="l3WkI6vGfcl9FhbMdZT0CqG" fill="rgb(206,20,28)" style="transform: none;">
    <g style="transform: none;">
      <path id="pQ7qxVlJj" d="M0 2500 l0 -2500 17590 0 17590 0 0 2500 0 2500 -17590 0 -17590 0 0 -2500z m4283 2008 c-13 -51 -42 -158 -64 -238 -21 -80 -91 -343 -154 -585 -63 -242 -124 -474 -135 -515 -11 -41 -33 -124 -49 -185 -146 -557 -169 -640 -201 -723 -51 -132 -143 -269 -229 -341 -60 -50 -170 -124 -210 -140 -28 -12 -31 -17 -31 -58 0 -25 18 -99 39 -166 22 -67 90 -282 151 -477 62 -195 125 -398 142 -450 16 -52 32 -103 35 -112 5 -17 -14 -18 -300 -18 -232 0 -307 3 -314 13 -9 10 -62 170 -256 767 -22 69 -61 188 -87 265 l-46 140 -675 5 c-371 3 -678 1 -684 -3 -6 -5 -11 -220 -13 -597 l-3 -590 -303 0 c-268 0 -305 2 -310 16 -8 21 -8 2798 0 2858 l7 46 303 0 304 0 0 -527 c0 -291 3 -558 7 -595 l6 -68 846 0 846 0 50 24 c56 26 126 93 149 140 12 25 101 348 231 841 87 328 272 1014 337 1248 l33 117 301 0 302 0 -25 -92z m3152 -1363 l0 -269 -1110 2 c-610 1 -1149 -2 -1197 -6 -101 -10 -141 -34 -182 -105 -24 -41 -24 -49 -28 -287 l-3 -245 1073 -3 1072 -2 0 -270 0 -270 -1072 -2 -1073 -3 4 -245 c4 -293 9 -308 116 -376 28 -18 76 -19 1215 -24 l1185 -5 0 -265 0 -265 -1180 0 c-1315 0 -1234 -4 -1412 69 -220 91 -408 287 -490 514 -52 144 -53 153 -53 876 l0 673 24 95 c91 360 389 631 746 678 30 4 575 7 1210 6 l1155 -1 0 -270z m2975 247 c110 -33 245 -103 330 -171 227 -181 363 -491 329 -750 -19 -146 -87 -312 -174 -426 -49 -64 -48 -107 4 -176 120 -158 194 -410 171 -583 -30 -224 -151 -445 -319 -579 -88 -70 -242 -147 -356 -179 l-80 -23 -1187 -3 -1188 -3 0 1461 0 1461 1198 -3 1197 -3 75 -23z m3688 4 c84 -22 185 -63 247 -99 126 -74 266 -218 334 -346 46 -87 89 -227 101 -326 16 -143 13 -1249 -4 -1360 -55 -358 -311 -642 -666 -737 l-85 -23 -830 0 c-890 0 -891 0 -1034 52 -306 111 -538 397 -581 719 -8 63 -11 276 -8 739 4 641 4 651 27 730 52 183 172 367 312 479 119 95 284 165 439 186 30 4 422 7 870 6 733 -2 821 -4 878 -20z m3727 -4 c354 -99 597 -366 660 -726 18 -101 22 -1272 4 -1389 -54 -366 -303 -647 -666 -750 l-78 -22 -1227 -3 -1228 -3 0 1461 0 1461 1228 -3 1227 -3 80 -23z m1787 -414 l3 -443 987 -3 988 -2 2 442 3 443 308 3 308 2 -3 -1082 c-3 -1077 -4 -1083 -25 -1160 -93 -328 -330 -563 -658 -651 -79 -22 -91 -22 -915 -22 -765 0 -841 1 -910 18 -333 79 -568 305 -678 652 -14 44 -16 182 -19 1148 l-4 1097 306 0 305 0 2 -442z m4848 -118 l0 -560 35 0 c32 0 37 5 63 51 47 89 198 311 264 390 l63 77 3 -34 c2 -24 -15 -82 -56 -187 -62 -159 -116 -318 -152 -453 -81 -296 -140 -581 -140 -676 l0 -58 168 -2 167 -3 3 -82 3 -83 -208 -2 -208 -3 0 -245 0 -245 183 -3 182 -2 0 -85 0 -85 -545 0 -545 0 0 85 0 85 188 2 187 3 3 247 2 248 -210 0 -210 0 0 85 0 85 170 0 170 0 0 33 c0 71 -64 399 -116 596 -41 156 -123 417 -175 555 -32 83 -49 145 -49 173 l0 44 53 -63 c107 -129 172 -224 249 -364 49 -89 53 -94 85 -94 l33 0 0 565 0 565 170 0 170 0 0 -560z m2150 80 l5 -475 172 -3 c124 -2 172 -6 175 -15 3 -6 3 -45 0 -84 l-4 -73 -174 0 -174 0 -2 -892 -3 -893 -167 -3 -168 -2 -2 892 -3 893 -617 3 -618 2 0 85 0 85 618 2 617 3 3 478 2 477 168 -2 167 -3 5 -475z m1350 -540 l0 -1019 128 -3 127 -3 0 -65 0 -65 -127 -3 -128 -3 -2 -367 -3 -367 -152 -3 -153 -3 0 371 0 370 -125 0 -125 0 0 70 0 70 125 0 125 0 0 1013 c0 558 3 1017 7 1020 3 4 73 7 155 7 l148 0 0 -1020z m2321 996 c68 -21 100 -40 141 -83 61 -63 62 -69 68 -398 l5 -300 88 -3 87 -3 2 -44 c1 -25 2 -53 2 -62 1 -16 -11 -19 -89 -23 l-90 -5 -5 -710 -5 -710 -443 0 c-435 0 -443 0 -448 -20 -3 -11 -4 -63 -2 -115 l3 -95 540 -5 540 -5 3 -57 3 -57 -38 -16 c-54 -23 -102 -72 -129 -132 l-24 -53 -120 0 c-66 0 -120 4 -120 8 0 11 55 88 69 97 6 3 11 24 11 46 l0 39 -370 0 -370 0 0 -95 0 -96 -147 3 -148 3 -3 93 -3 92 -444 0 -445 0 0 65 0 65 445 0 445 0 0 115 0 115 -37 2 c-21 0 -220 2 -443 2 l-405 1 -3 603 -2 602 150 0 149 0 3 -122 3 -123 293 -3 292 -2 0 125 0 125 150 0 149 0 3 -122 3 -123 295 0 295 0 3 219 c2 153 -1 223 -9 232 -10 12 -167 14 -960 14 l-949 0 0 65 0 65 259 0 c143 0 266 3 275 6 9 3 16 16 16 29 0 32 34 127 72 197 47 89 169 213 266 271 71 43 194 93 275 111 l27 6 0 -60 0 -60 -62 -31 c-157 -79 -297 -288 -286 -424 l3 -40 535 0 535 0 3 280 c2 200 -1 288 -10 309 -6 16 -32 42 -57 57 -41 27 -53 29 -138 29 l-93 0 0 58 c0 32 3 62 8 66 12 14 332 -1 383 -18z m4094 -61 l0 -80 -1285 -5 c-707 -3 -1286 -6 -1287 -8 -2 -1 -11 -14 -20 -29 -17 -25 -18 -86 -23 -898 l-5 -870 -322 -3 -323 -2 0 85 0 85 149 0 c127 0 150 2 155 16 3 9 6 365 6 793 0 853 -2 828 60 903 35 42 100 76 167 88 27 4 651 7 1388 6 l1340 -1 0 -80z m-2363 -369 c148 -57 355 -166 485 -256 172 -118 359 -306 482 -484 55 -80 116 -184 132 -228 9 -23 17 -28 42 -28 38 0 52 8 61 35 9 31 95 172 161 265 77 110 284 318 405 408 125 92 295 189 452 257 71 30 133 55 138 55 7 0 10 -19 8 -47 l-3 -47 -103 -72 c-573 -398 -901 -932 -938 -1525 -7 -106 -7 -106 17 -112 13 -4 250 -7 527 -7 l503 0 -3 -83 -3 -82 -520 -5 -520 -5 -3 -252 -2 -253 -170 0 -170 0 -2 253 -3 252 -525 5 -525 5 -3 83 -3 82 525 0 c585 0 536 -7 536 74 0 136 -59 418 -120 572 -160 403 -429 728 -822 995 l-118 80 0 44 c0 25 4 45 10 45 5 0 38 -11 72 -24z m-6244 -1115 c-13 -8 -57 -49 -99 -92 -114 -116 -181 -269 -204 -461 l-7 -58 -154 0 -154 0 6 28 c24 109 40 155 81 235 107 208 290 371 498 445 l50 18 3 -50 c3 -44 0 -53 -20 -65z m182 -599 c0 -46 -2 -50 -52 -91 -156 -125 -257 -316 -283 -533 l-7 -58 -154 0 -154 0 0 24 c0 40 49 177 91 256 75 140 176 248 314 338 68 45 207 112 233 112 8 0 12 -16 12 -48z m5797 -131 c-8 -72 -55 -204 -98 -274 -94 -153 -228 -257 -408 -316 -36 -12 -66 -21 -68 -21 -2 0 -3 28 -1 62 3 61 4 63 42 82 60 32 130 116 164 198 31 73 62 220 62 291 l0 37 156 0 157 0 -6 -59z"></path>
      <path id="pakZClPaX" d="M8557 2873 c-4 -3 -7 -150 -7 -325 l0 -318 870 0 c838 0 872 1 908 19 48 25 97 77 116 123 19 46 22 290 5 349 -16 50 -61 105 -112 132 l-42 22 -866 2 c-476 2 -869 0 -872 -4z"></path>
      <path id="pg052V6xL" d="M8559 1686 c-5 -6 -9 -141 -9 -328 l0 -318 868 0 c977 0 909 -5 984 78 53 58 60 94 56 268 -3 148 -4 152 -33 200 -23 36 -44 56 -85 76 l-55 28 -858 2 c-532 2 -862 -1 -868 -6z"></path>
      <path id="pA51pKPxn" d="M12390 2871 c-66 -8 -108 -29 -145 -73 -57 -67 -55 -37 -55 -840 0 -702 1 -745 19 -783 10 -22 34 -54 52 -72 70 -66 25 -63 921 -63 771 0 815 1 853 19 22 10 54 34 72 52 66 70 63 32 63 849 0 732 0 741 -21 785 -22 48 -74 99 -118 117 -30 13 -1546 21 -1641 9z"></path>
      <path id="pVykAyGk6" d="M15912 2868 c-9 -9 -12 -241 -12 -904 0 -491 3 -899 6 -908 6 -14 95 -16 905 -16 732 0 906 3 932 13 49 21 98 67 118 112 17 38 19 84 19 796 l0 756 -23 43 c-13 25 -42 57 -69 75 l-46 32 -173 7 c-308 12 -1644 7 -1657 -6z"></path>
      <path id="p9hShI5BX" d="M19617 1983 c-4 -3 -7 -169 -7 -368 0 -398 4 -429 60 -497 16 -20 49 -46 73 -57 43 -21 52 -21 858 -21 768 0 816 1 854 19 50 22 120 100 129 142 3 17 6 202 6 410 l0 379 -983 0 c-541 0 -987 -3 -990 -7z"></path>
      <path id="p3951Gigs" d="M28711 1866 c-8 -9 -11 -55 -9 -137 l3 -124 293 -3 292 -2 0 140 0 140 -284 0 c-230 0 -286 -3 -295 -14z"></path>
      <path id="pC7nHosZs" d="M29597 1873 c-4 -3 -7 -66 -7 -140 l0 -133 298 2 297 3 3 115 c1 63 0 125 -3 138 l-5 22 -289 0 c-158 0 -291 -3 -294 -7z"></path>
      <path id="plfQPYITJ" d="M28960 1460 l-255 -5 -3 -115 c-1 -63 0 -125 3 -138 l5 -22 288 2 287 3 0 140 0 140 -35 0 c-19 1 -150 -2 -290 -5z"></path>
      <path id="p7zcLGnCu" d="M29593 1454 c-2 -5 -2 -68 -1 -140 l3 -129 295 0 295 0 3 129 c1 75 -2 134 -7 139 -14 14 -582 15 -588 1z"></path>
    </g>
  </g>
  <g id="l2yNdMo7xB0sV03jk7SbGYz" fill="rgb(255,254,254)" style="transform: none;">
    <g style="transform: none;">
      <path id="p5ky8jhxC" d="M3674 4625 c-8 -24 -67 -237 -119 -430 -84 -313 -208 -772 -250 -930 -130 -493 -219 -816 -231 -841 -23 -47 -93 -114 -149 -140 l-50 -24 -816 0 -816 0 -7 77 c-4 42 -6 309 -5 592 l2 516 -339 0 -339 0 -3 -1465 c-1 -806 0 -1475 3 -1488 l5 -22 336 2 335 3 2 585 c1 322 5 590 9 595 4 7 228 8 654 5 l648 -5 46 -140 c26 -77 65 -196 87 -265 194 -597 247 -757 256 -767 7 -10 90 -13 353 -13 189 0 344 3 344 7 0 4 -9 32 -19 62 -11 31 -46 142 -79 246 -33 105 -111 350 -173 545 -61 195 -114 367 -116 381 -4 22 0 28 27 39 41 17 150 90 211 141 86 72 178 209 229 341 32 83 55 166 201 723 16 61 38 144 49 185 11 41 72 273 135 515 63 242 133 505 154 585 93 340 103 381 99 386 -10 10 -671 9 -674 -1z"></path>
      <path id="p5GVf99xv" d="M5040 3440 c-229 -30 -447 -158 -587 -345 -66 -88 -132 -225 -159 -333 l-24 -95 0 -703 c0 -755 0 -761 53 -906 59 -164 196 -340 338 -434 82 -54 205 -107 309 -131 70 -17 161 -18 1285 -18 l1210 0 0 295 0 295 -1185 5 c-1139 5 -1187 6 -1215 24 -106 67 -112 87 -116 346 l-3 215 1069 2 1070 3 3 300 2 300 -1071 2 -1071 3 1 215 c2 209 3 216 27 257 42 72 81 95 182 104 48 5 587 8 1197 7 l1110 -3 0 300 0 300 -1185 1 c-652 1 -1210 -2 -1240 -6z"></path>
      <path id="p14EUTFNC0" d="M7910 3448 c0 -2 0 -671 0 -1488 l0 -1485 1212 0 1213 0 85 22 c116 31 270 108 361 180 224 179 359 507 320 781 -24 166 -88 330 -172 441 -21 28 -39 56 -39 61 0 5 16 30 35 55 90 118 156 283 175 440 29 227 -43 472 -193 659 -112 139 -283 252 -467 308 l-75 23 -1227 3 c-676 1 -1228 1 -1228 0z m2397 -625 c51 -27 96 -82 112 -132 17 -58 14 -244 -5 -289 -19 -46 -68 -98 -116 -123 -36 -18 -70 -19 -878 -19 l-840 0 0 288 c0 159 3 291 6 294 3 3 382 5 842 4 l837 -1 42 -22z m18 -1198 c36 -22 57 -45 77 -84 26 -50 28 -61 28 -172 0 -134 -11 -173 -63 -228 -18 -18 -50 -42 -72 -52 -38 -18 -83 -19 -877 -19 l-838 0 0 288 c0 168 4 292 9 298 6 5 325 7 849 4 l839 -5 48 -30z"></path>
      <path id="pvzwPucFA" d="M12320 3440 c-155 -21 -320 -91 -439 -186 -140 -112 -260 -296 -312 -479 -23 -79 -23 -87 -27 -760 -3 -486 0 -705 8 -769 43 -322 275 -608 581 -719 143 -52 142 -52 1064 -52 l860 0 85 23 c355 95 611 379 666 737 17 111 20 1277 4 1420 -12 99 -55 239 -101 326 -93 174 -266 328 -451 402 -159 63 -113 60 -1038 63 -465 1 -870 -2 -900 -6z m1681 -608 c44 -18 96 -69 118 -117 21 -44 21 -54 21 -755 0 -783 3 -750 -63 -819 -18 -18 -50 -42 -72 -52 -38 -18 -82 -19 -823 -19 -863 0 -821 -3 -891 63 -74 71 -71 29 -71 825 0 771 -2 743 55 810 37 44 79 65 145 73 94 12 1551 4 1581 -9z"></path>
      <path id="pVcy0JkSH" d="M15258 3440 c-1 -5 -2 -676 0 -1490 l2 -1481 1258 3 1257 3 78 22 c312 89 534 299 630 598 44 138 47 187 47 872 0 518 -3 664 -15 729 -63 360 -306 627 -660 726 l-80 23 -1257 3 c-855 2 -1257 -1 -1260 -8z m2257 -596 l197 -7 46 -32 c27 -18 56 -50 69 -75 l23 -43 0 -726 c0 -683 -2 -728 -19 -766 -20 -45 -69 -91 -118 -112 -26 -10 -195 -13 -902 -13 -789 0 -869 1 -875 16 -10 27 -7 1736 4 1749 11 13 1262 21 1575 9z"></path>
      <path id="pm6igAdgf" d="M18968 3440 c-1 -5 0 -513 3 -1127 6 -1221 1 -1130 65 -1287 61 -152 202 -323 339 -411 76 -49 198 -99 295 -122 69 -17 146 -18 940 -18 855 0 866 0 945 22 328 88 565 323 658 651 21 77 22 82 25 1190 l3 1112 -338 -2 -338 -3 -3 -443 -2 -442 -958 2 -957 3 -3 443 -2 442 -334 0 c-214 0 -336 -4 -338 -10z m2592 -1829 c0 -192 -3 -363 -6 -380 -9 -42 -79 -120 -129 -142 -38 -18 -85 -19 -824 -19 -776 0 -785 0 -828 21 -24 11 -57 37 -73 57 -56 67 -60 101 -60 467 0 182 3 335 7 338 3 4 435 7 960 7 l953 0 0 -349z"></path>
      <path id="p7BfNUeT9" d="M24088 2884 l-3 -567 -52 95 c-54 98 -114 192 -171 268 -63 82 -182 220 -192 220 -5 0 -6 -44 -3 -107 5 -95 11 -122 50 -223 112 -296 231 -732 273 -1005 6 -38 13 -82 16 -97 l5 -28 -172 -2 -172 -3 0 -110 -1 -110 212 -3 212 -2 -2 -218 -3 -217 -185 0 c-102 0 -187 -3 -190 -6 -3 -4 -4 -57 -2 -118 l3 -111 575 0 575 0 -3 116 -3 117 -180 1 -180 1 0 215 0 215 208 3 208 2 -3 113 -3 112 -167 3 -168 2 0 28 c0 67 71 392 140 647 35 132 98 317 156 463 52 131 54 141 54 230 0 71 -3 93 -12 90 -41 -14 -287 -347 -383 -519 l-30 -54 -3 563 -2 562 -200 0 -200 0 -2 -566z"></path>
      <path id="pjMP2gTsB" d="M26238 2973 l-3 -478 -617 -3 -617 -2 -3 -93 c-2 -50 -2 -102 0 -114 l3 -23 617 -2 617 -3 3 -893 2 -892 198 2 197 3 3 892 2 893 177 2 177 3 2 95 c2 52 1 103 -2 112 -5 16 -24 18 -177 20 l-172 3 -5 475 -5 475 -197 3 -198 2 -2 -477z"></path>
      <path id="paegudnPC" d="M27627 3443 c-4 -3 -7 -462 -7 -1020 l0 -1013 -125 0 -125 0 0 -100 0 -100 125 0 125 0 0 -370 0 -370 183 2 182 3 3 367 2 367 128 3 127 3 0 95 0 95 -127 3 -128 3 0 1019 0 1020 -178 0 c-98 0 -182 -3 -185 -7z"></path>
      <path id="pyrZ4xJXo" d="M29868 3444 c-5 -4 -8 -47 -8 -96 l0 -88 93 0 c85 0 97 -2 138 -29 25 -15 51 -41 57 -57 9 -21 12 -102 10 -279 l-3 -250 -499 -3 c-308 -1 -503 1 -509 7 -13 13 8 90 46 166 40 81 161 200 242 238 l60 28 -2 90 c-1 50 -3 92 -5 94 -8 8 -157 -28 -225 -55 -213 -82 -384 -254 -453 -456 -11 -32 -20 -67 -20 -79 0 -13 -8 -26 -17 -29 -9 -4 -127 -6 -262 -6 -136 1 -252 1 -259 0 -10 0 -12 -23 -10 -95 l3 -96 946 1 c799 0 948 -2 958 -14 8 -9 11 -70 9 -202 l-3 -189 -265 0 -265 0 -3 123 -3 122 -179 0 -180 0 0 -125 0 -125 -262 2 -263 3 -1 120 0 120 -182 3 -182 2 2 -632 3 -633 405 -1 c223 -1 422 -2 443 -3 l37 -1 0 -85 0 -85 -445 0 -445 0 0 -95 0 -95 445 0 444 0 3 -92 3 -93 178 -3 177 -2 0 95 0 95 340 0 c187 0 340 -3 340 -6 0 -4 -14 -22 -30 -41 -35 -39 -82 -128 -73 -137 4 -3 78 -6 165 -6 l158 0 24 53 c27 60 75 109 129 132 l38 16 -3 87 -3 87 -540 5 -540 5 -3 65 c-6 117 -58 105 450 105 l443 0 5 710 5 710 81 1 c44 0 86 4 92 8 14 8 12 170 -2 183 -4 5 -44 8 -89 8 l-82 0 -5 300 c-6 329 -7 335 -68 398 -78 81 -138 98 -382 104 -107 3 -198 2 -202 -3z m-608 -1704 l0 -110 -262 2 -263 3 -3 94 c-1 59 2 98 9 107 9 11 62 14 265 14 l254 0 0 -110z m895 88 c3 -13 5 -61 3 -108 l-3 -85 -267 -3 -268 -2 0 103 c0 57 3 107 7 110 3 4 122 7 264 7 l259 0 5 -22z m-897 -509 l-3 -104 -257 -3 -258 -2 -5 22 c-3 13 -5 61 -3 108 l3 85 255 5 c140 3 259 2 263 -1 4 -3 6 -53 5 -110z m894 103 c5 -5 7 -53 6 -108 l-3 -99 -265 0 -265 0 -3 99 c-1 55 -1 104 1 110 5 14 516 11 529 -2z"></path>
      <path id="pQEVFNU4W" d="M31617 3440 c-67 -12 -132 -46 -167 -88 -62 -75 -60 -50 -60 -903 0 -428 -3 -785 -6 -794 -6 -14 -26 -16 -153 -14 l-146 1 0 -116 0 -117 344 1 c189 0 348 3 352 6 5 3 9 393 9 867 0 842 1 863 20 895 11 17 21 33 22 34 2 2 581 5 1288 8 l1285 5 0 110 0 110 -1370 1 c-753 1 -1391 -2 -1418 -6z"></path>
      <path id="pvM8NMNmJ" d="M31906 3043 c-3 -4 -6 -44 -6 -89 l0 -83 118 -80 c458 -311 762 -720 883 -1190 33 -129 63 -332 54 -368 l-5 -23 -526 0 -525 0 3 -112 3 -113 525 -5 525 -5 3 -252 2 -253 200 0 c153 0 200 3 200 13 1 6 2 120 3 252 l2 240 520 5 520 5 0 113 0 113 -498 -1 c-273 0 -509 3 -523 6 -26 7 -26 7 -20 83 51 586 376 1104 938 1495 l103 72 3 87 c2 68 0 87 -11 87 -18 0 -169 -61 -282 -114 -119 -56 -274 -149 -377 -227 -112 -84 -320 -295 -393 -399 -72 -101 -153 -236 -161 -267 -9 -33 -31 -36 -43 -5 -17 44 -78 149 -132 228 -123 178 -310 366 -482 485 -134 92 -405 232 -522 269 -22 7 -52 19 -66 26 -15 7 -29 10 -33 7z"></path>
      <path id="pSMYlUDgJ" d="M25720 1984 c-235 -87 -410 -244 -520 -467 -50 -101 -85 -228 -78 -282 l3 -26 173 0 c94 0 176 1 181 1 5 0 12 26 16 58 12 99 45 214 86 297 42 86 143 207 204 245 l35 22 0 89 c0 103 3 102 -100 63z"></path>
      <path id="pKuAAMKgU" d="M25869 1316 c-221 -84 -403 -239 -506 -432 -49 -93 -87 -206 -97 -286 l-7 -58 189 0 190 0 7 57 c26 218 127 409 283 534 l52 43 0 88 c0 64 -3 88 -12 88 -7 -1 -52 -15 -99 -34z"></path>
      <path id="pW3xyvGSy" d="M31414 1211 c-2 -2 -4 -20 -4 -40 0 -69 -32 -216 -62 -289 -34 -82 -104 -166 -164 -198 l-39 -20 -3 -98 -3 -98 33 7 c274 54 477 223 568 472 31 87 58 239 44 253 -9 8 -362 19 -370 11z"></path>
    </g>
  </g>
</svg>